<svg preserveAspectRatio="none" width="100%" height="100%" overflow="visible" style="display: block;" viewBox="0 0 8.31073 8.95" fill="none" xmlns="http://www.w3.org/2000/svg">
<g id="Icon Frame">
<path id="Vector 151" d="M3.51608 6.07322V3.83572L2.87679 4.25525" stroke="var(--stroke-0, white)" stroke-width="0.479464" stroke-linecap="round" stroke-linejoin="round"/>
<path id="Ellipse 67" d="M4.47501 5.93342C4.57517 6.0212 4.69968 6.07322 4.8346 6.07322C5.1656 6.07322 5.43393 5.76017 5.43393 5.374C5.43393 4.98783 5.1656 4.67478 4.8346 4.67478C4.69968 4.67478 4.57517 4.72679 4.47501 4.81457L4.59487 3.83572H5.43393" stroke="var(--stroke-0, white)" stroke-width="0.479464" stroke-linecap="round" stroke-linejoin="round"/>
<path id="Vector" d="M6.7713 2.17489C8.3206 3.57928 8.40536 5.93863 6.96062 7.44466C5.51587 8.95068 3.08872 9.03307 1.53942 7.62868C-0.00987734 6.22429 -0.0946351 3.86494 1.35011 2.35891C2.17188 1.50228 3.3115 1.10625 4.42662 1.18244M3.88138 0.319644L4.85833 1.22517L3.88138 2.19626" stroke="var(--stroke-0, white)" stroke-width="0.639286" stroke-linecap="round" stroke-linejoin="round"/>
</g>
</svg>
