<svg preserveAspectRatio="none" width="100%" height="100%" overflow="visible" style="display: block;" viewBox="0 0 26 28" fill="none" xmlns="http://www.w3.org/2000/svg">
<g id="Icon Frame">
<path id="Vector 151" d="M11 19V12L9.00002 13.3125" stroke="var(--stroke-0, white)" stroke-width="1.5" stroke-linecap="round" stroke-linejoin="round"/>
<path id="Ellipse 67" d="M14 18.5627C14.3134 18.8373 14.7029 19 15.125 19C16.1606 19 17 18.0206 17 16.8125C17 15.6044 16.1606 14.625 15.125 14.625C14.7029 14.625 14.3134 14.7877 14 15.0623L14.375 12H17" stroke="var(--stroke-0, white)" stroke-width="1.5" stroke-linecap="round" stroke-linejoin="round"/>
<path id="Vector" d="M4.81607 6.80412C-0.0309007 11.1977 -0.296066 18.579 4.22381 23.2905C8.74367 28.0021 16.337 28.2599 21.184 23.8663C26.0309 19.4726 26.2961 12.0914 21.7762 7.37984C19.2053 4.69988 15.64 3.4609 12.1514 3.69924M13.8572 1L10.8008 3.83294L13.8572 6.87098" stroke="var(--stroke-0, white)" stroke-width="2" stroke-linecap="round" stroke-linejoin="round"/>
</g>
</svg>
