<svg preserveAspectRatio="none" width="100%" height="100%" overflow="visible" style="display: block;" viewBox="0 0 90.6667 16" fill="none" xmlns="http://www.w3.org/2000/svg">
<g id="Stars">
<path id="Star 2" d="M8 0L9.79611 5.52786H15.6085L10.9062 8.94427L12.7023 14.4721L8 11.0557L3.29772 14.4721L5.09383 8.94427L0.391548 5.52786H6.20389L8 0Z" fill="var(--fill-0, #F79008)"/>
<path id="Star 3" d="M26.6668 0L28.4629 5.52786H34.2753L29.573 8.94427L31.3691 14.4721L26.6668 11.0557L21.9645 14.4721L23.7607 8.94427L19.0584 5.52786H24.8707L26.6668 0Z" fill="var(--fill-0, #F79008)"/>
<path id="Star 4" d="M45.3335 0L47.1296 5.52786H52.9419L48.2397 8.94427L50.0358 14.4721L45.3335 11.0557L40.6312 14.4721L42.4273 8.94427L37.725 5.52786H43.5374L45.3335 0Z" fill="var(--fill-0, #F79008)"/>
<path id="Star 5" d="M64.0002 0L65.7963 5.52786H71.6086L66.9063 8.94427L68.7024 14.4721L64.0002 11.0557L59.2979 14.4721L61.094 8.94427L56.3917 5.52786H62.2041L64.0002 0Z" fill="var(--fill-0, #F79008)"/>
<path id="Star 6" d="M82.6668 0L84.4629 5.52786H90.2753L85.573 8.94427L87.3691 14.4721L82.6668 11.0557L77.9646 14.4721L79.7607 8.94427L75.0584 5.52786H80.8707L82.6668 0Z" fill="var(--fill-0, #F79008)"/>
</g>
</svg>
