<svg preserveAspectRatio="none" width="100%" height="100%" overflow="visible" style="display: block;" viewBox="0 0 90.6667 16" fill="none" xmlns="http://www.w3.org/2000/svg">
<g id="Stars">
<path id="Star 2" d="M8 0L9.79611 5.52786H15.6085L10.9062 8.94427L12.7023 14.4721L8 11.0557L3.29772 14.4721L5.09383 8.94427L0.391548 5.52786H6.20389L8 0Z" fill="var(--fill-0, #F79008)"/>
<path id="Star 3" d="M26.6667 0L28.4628 5.52786H34.2751L29.5728 8.94427L31.3689 14.4721L26.6667 11.0557L21.9644 14.4721L23.7605 8.94427L19.0582 5.52786H24.8706L26.6667 0Z" fill="var(--fill-0, #F79008)"/>
<path id="Star 4" d="M45.3333 0L47.1294 5.52786H52.9418L48.2395 8.94427L50.0356 14.4721L45.3333 11.0557L40.6311 14.4721L42.4272 8.94427L37.7249 5.52786H43.5372L45.3333 0Z" fill="var(--fill-0, #F79008)"/>
<path id="Star 5" d="M64 0L65.7961 5.52786H71.6085L66.9062 8.94427L68.7023 14.4721L64 11.0557L59.2977 14.4721L61.0938 8.94427L56.3915 5.52786H62.2039L64 0Z" fill="var(--fill-0, #F79008)"/>
<path id="Star 6" d="M82.6667 0L84.4628 5.52786H90.2751L85.5728 8.94427L87.3689 14.4721L82.6667 11.0557L77.9644 14.4721L79.7605 8.94427L75.0582 5.52786H80.8706L82.6667 0Z" fill="var(--fill-0, #F79008)"/>
</g>
</svg>
