<svg preserveAspectRatio="none" width="100%" height="100%" overflow="visible" style="display: block;" viewBox="0 0 1342.21 482.983" fill="none" xmlns="http://www.w3.org/2000/svg">
<g id="Frame 2147226091">
<circle id="Pattern/Ring" cx="241.491" cy="241.491" r="219.25" transform="rotate(-95.9124 241.491 241.491)" stroke="var(--stroke-0, #75DEFF)" stroke-opacity="0.12" stroke-width="1.5"/>
<circle id="Pattern/Ring_2" cx="1155.61" cy="209.606" r="169.25" transform="rotate(-95.9124 1155.61 209.606)" stroke="var(--stroke-0, #75DEFF)" stroke-opacity="0.09" stroke-width="1.5"/>
<circle id="Pattern/Ring_3" cx="541.602" cy="129.98" r="79.25" transform="rotate(-95.9124 541.602 129.98)" stroke="var(--stroke-0, #75DEFF)" stroke-opacity="0.07" stroke-width="1.5"/>
<circle id="Pattern/Ring_4" cx="1207.74" cy="179.071" r="44.25" transform="rotate(-95.9124 1207.74 179.071)" stroke="var(--stroke-0, #75DEFF)" stroke-opacity="0.06" stroke-width="1.5"/>
<circle id="Pattern/Dot" cx="704.503" cy="232.246" r="1.5" transform="rotate(-95.9124 704.503 232.246)" fill="var(--fill-0, #75DEFF)" fill-opacity="0.22"/>
<circle id="Pattern/Dot_2" cx="702.854" cy="216.332" r="1.5" transform="rotate(-95.9124 702.854 216.332)" fill="var(--fill-0, #75DEFF)" fill-opacity="0.22"/>
<circle id="Pattern/Dot_3" cx="701.206" cy="200.414" r="1.5" transform="rotate(-95.9124 701.206 200.414)" fill="var(--fill-0, #75DEFF)" fill-opacity="0.22"/>
<circle id="Pattern/Dot_4" cx="699.558" cy="184.5" r="1.5" transform="rotate(-95.9124 699.558 184.5)" fill="var(--fill-0, #75DEFF)" fill-opacity="0.22"/>
<circle id="Pattern/Dot_5" cx="720.418" cy="230.598" r="1.5" transform="rotate(-95.9124 720.418 230.598)" fill="var(--fill-0, #75DEFF)" fill-opacity="0.22"/>
<circle id="Pattern/Dot_6" cx="718.769" cy="214.684" r="1.5" transform="rotate(-95.9124 718.769 214.684)" fill="var(--fill-0, #75DEFF)" fill-opacity="0.22"/>
<circle id="Pattern/Dot_7" cx="717.121" cy="198.766" r="1.5" transform="rotate(-95.9124 717.121 198.766)" fill="var(--fill-0, #75DEFF)" fill-opacity="0.22"/>
<circle id="Pattern/Dot_8" cx="715.473" cy="182.852" r="1.5" transform="rotate(-95.9124 715.473 182.852)" fill="var(--fill-0, #75DEFF)" fill-opacity="0.22"/>
<circle id="Pattern/Dot_9" cx="736.332" cy="228.95" r="1.5" transform="rotate(-95.9124 736.332 228.95)" fill="var(--fill-0, #75DEFF)" fill-opacity="0.22"/>
<circle id="Pattern/Dot_10" cx="734.684" cy="213.035" r="1.5" transform="rotate(-95.9124 734.684 213.035)" fill="var(--fill-0, #75DEFF)" fill-opacity="0.22"/>
<circle id="Pattern/Dot_11" cx="733.036" cy="197.121" r="1.5" transform="rotate(-95.9124 733.036 197.121)" fill="var(--fill-0, #75DEFF)" fill-opacity="0.22"/>
<circle id="Pattern/Dot_12" cx="731.387" cy="181.203" r="1.5" transform="rotate(-95.9124 731.387 181.203)" fill="var(--fill-0, #75DEFF)" fill-opacity="0.22"/>
<circle id="Pattern/Dot_13" cx="752.247" cy="227.305" r="1.5" transform="rotate(-95.9124 752.247 227.305)" fill="var(--fill-0, #75DEFF)" fill-opacity="0.22"/>
<circle id="Pattern/Dot_14" cx="750.599" cy="211.387" r="1.5" transform="rotate(-95.9124 750.599 211.387)" fill="var(--fill-0, #75DEFF)" fill-opacity="0.22"/>
<circle id="Pattern/Dot_15" cx="748.951" cy="195.473" r="1.5" transform="rotate(-95.9124 748.951 195.473)" fill="var(--fill-0, #75DEFF)" fill-opacity="0.22"/>
<circle id="Pattern/Dot_16" cx="747.302" cy="179.555" r="1.5" transform="rotate(-95.9124 747.302 179.555)" fill="var(--fill-0, #75DEFF)" fill-opacity="0.22"/>
</g>
</svg>
