<svg width="123" height="40" viewBox="0 0 123.347 40" fill="none" xmlns="http://www.w3.org/2000/svg">
<g id="Nas Logo - Primary Logo-01 1" clip-path="url(#clip0_785_37305)">
<g id="Group">
<g id="_x3C_Radial_Repeat_x3E_">
<path id="Vector" d="M16.5207 37.189C15.8752 37.8345 15.8752 38.881 16.5207 39.5265C17.1662 40.172 18.2127 40.172 18.8582 39.5265L23.8255 34.5593C24.471 33.9138 24.471 32.8672 23.8255 32.2217C23.18 31.5762 22.1335 31.5762 21.488 32.2217L16.5207 37.189Z" fill="url(#paint0_linear_785_37305)"/>
<path id="Vector_2" d="M15.702 32.685C15.702 33.5979 16.4421 34.3379 17.3549 34.3379C18.2678 34.3379 19.0078 33.5979 19.0078 32.685V25.6602C19.0078 24.7473 18.2678 24.0073 17.3549 24.0073C16.4421 24.0073 15.702 24.7473 15.702 25.6602V32.685Z" fill="url(#paint1_linear_785_37305)"/>
</g>
<g id="_x3C_Radial_Repeat_x3E__2">
<path id="Vector_3" d="M5.39215 29.6903C4.47928 29.6903 3.73926 30.4303 3.73926 31.3432C3.73926 32.2561 4.47928 32.9961 5.39215 32.9961H12.4169C13.3298 32.9961 14.0698 32.2561 14.0698 31.3432C14.0698 30.4303 13.3298 29.6903 12.4169 29.6903H5.39215Z" fill="url(#paint2_linear_785_37305)"/>
<path id="Vector_4" d="M7.9865 25.9234C7.34101 26.5689 7.34101 27.6154 7.9865 28.2609C8.632 28.9064 9.67855 28.9064 10.324 28.2609L15.2913 23.2936C15.9368 22.6481 15.9368 21.6016 15.2913 20.9561C14.6458 20.3106 13.5993 20.3106 12.9538 20.9561L7.9865 25.9234Z" fill="url(#paint3_linear_785_37305)"/>
</g>
<g id="_x3C_Radial_Repeat_x3E__3">
<path id="Vector_5" d="M2.80807 16.5285C2.16258 15.883 1.11602 15.883 0.470529 16.5285C-0.174965 17.174 -0.174965 18.2205 0.470529 18.866L5.43781 23.8333C6.0833 24.4788 7.12986 24.4788 7.77535 23.8333C8.42085 23.1878 8.42085 22.1413 7.77535 21.4958L2.80807 16.5285Z" fill="url(#paint4_linear_785_37305)"/>
<path id="Vector_6" d="M7.33453 15.702C6.42167 15.702 5.68164 16.4421 5.68164 17.3549C5.68164 18.2678 6.42167 19.0078 7.33453 19.0078H14.3593C15.2722 19.0078 16.0122 18.2678 16.0122 17.3549C16.0122 16.4421 15.2722 15.702 14.3593 15.702H7.33453Z" fill="url(#paint5_linear_785_37305)"/>
</g>
<g id="_x3C_Radial_Repeat_x3E__4">
<path id="Vector_7" d="M10.3302 5.39313C10.3302 4.48026 9.59017 3.74023 8.67731 3.74023C7.76444 3.74023 7.02441 4.48026 7.02441 5.39313V12.4179C7.02441 13.3308 7.76444 14.0708 8.67731 14.0708C9.59017 14.0708 10.3302 13.3308 10.3302 12.4179V5.39313Z" fill="url(#paint6_linear_785_37305)"/>
<path id="Vector_8" d="M14.0757 7.98748C13.4302 7.34198 12.3836 7.34198 11.7381 7.98748C11.0926 8.63297 11.0926 9.67953 11.7381 10.325L16.7054 15.2923C17.3509 15.9378 18.3974 15.9378 19.0429 15.2923C19.6884 14.6468 19.6884 13.6003 19.0429 12.9548L14.0757 7.98748Z" fill="url(#paint7_linear_785_37305)"/>
</g>
<g id="_x3C_Radial_Repeat_x3E__5">
<path id="Vector_9" d="M23.4949 2.82272C24.1404 2.17723 24.1404 1.13067 23.4949 0.485178C22.8494 -0.160317 21.8029 -0.160317 21.1574 0.485178L16.1901 5.45246C15.5446 6.09795 15.5446 7.1445 16.1901 7.79C16.8356 8.43549 17.8822 8.43549 18.5277 7.79L23.4949 2.82272Z" fill="url(#paint8_linear_785_37305)"/>
<path id="Vector_10" d="M24.3175 7.315C24.3175 6.40213 23.5775 5.66211 22.6646 5.66211C21.7517 5.66211 21.0117 6.40213 21.0117 7.315V14.3398C21.0117 15.2527 21.7517 15.9927 22.6646 15.9927C23.5775 15.9927 24.3175 15.2527 24.3175 14.3398V7.315Z" fill="url(#paint9_linear_785_37305)"/>
</g>
<g id="_x3C_Radial_Repeat_x3E__6">
<path id="Vector_11" d="M34.6284 10.3312C35.5412 10.3312 36.2812 9.59115 36.2812 8.67828C36.2812 7.76542 35.5412 7.02539 34.6284 7.02539L27.6036 7.02539C26.6907 7.02539 25.9507 7.76542 25.9507 8.67828C25.9507 9.59115 26.6907 10.3312 27.6036 10.3312H34.6284Z" fill="url(#paint10_linear_785_37305)"/>
<path id="Vector_12" d="M32.0213 14.0923C32.6668 13.4468 32.6668 12.4002 32.0213 11.7547C31.3758 11.1092 30.3293 11.1092 29.6838 11.7547L24.7165 16.722C24.071 17.3675 24.071 18.414 24.7165 19.0595C25.362 19.705 26.4085 19.705 27.054 19.0595L32.0213 14.0923Z" fill="url(#paint11_linear_785_37305)"/>
</g>
<g id="_x3C_Radial_Repeat_x3E__7">
<path id="Vector_13" d="M37.1958 23.5028C37.8413 24.1483 38.8879 24.1483 39.5334 23.5028C40.1789 22.8573 40.1789 21.8107 39.5334 21.1652L34.5661 16.1979C33.9206 15.5524 32.8741 15.5524 32.2286 16.1979C31.5831 16.8434 31.5831 17.89 32.2286 18.5355L37.1958 23.5028Z" fill="url(#paint12_linear_785_37305)"/>
<path id="Vector_14" d="M32.7065 24.3195C33.6193 24.3195 34.3594 23.5794 34.3594 22.6666C34.3594 21.7537 33.6193 21.0137 32.7065 21.0137H25.6817C24.7688 21.0137 24.0288 21.7537 24.0288 22.6666C24.0288 23.5794 24.7688 24.3195 25.6817 24.3195H32.7065Z" fill="url(#paint13_linear_785_37305)"/>
</g>
<g id="_x3C_Radial_Repeat_x3E__8">
<path id="Vector_15" d="M29.6893 34.6284C29.6893 35.5412 30.4294 36.2812 31.3422 36.2812C32.2551 36.2812 32.9951 35.5412 32.9951 34.6284V27.6036C32.9951 26.6907 32.2551 25.9507 31.3422 25.9507C30.4294 25.9507 29.6893 26.6907 29.6893 27.6036V34.6284Z" fill="url(#paint14_linear_785_37305)"/>
<path id="Vector_16" d="M25.9214 32.0067C26.5669 32.6522 27.6135 32.6522 28.259 32.0067C28.9045 31.3612 28.9045 30.3146 28.259 29.6691L23.2917 24.7018C22.6462 24.0563 21.5996 24.0563 20.9541 24.7018C20.3086 25.3473 20.3086 26.3939 20.9541 27.0394L25.9214 32.0067Z" fill="url(#paint15_linear_785_37305)"/>
</g>
</g>
<g id="Group_2">
<path id="Vector_17" d="M68.7603 28.348V11.1786C68.7603 7.91416 66.1157 5.26953 62.8512 5.26953H55.8264C55.4339 5.26953 55.0413 5.43482 54.7727 5.70342L52.7066 7.76953C52.3347 8.14143 51.6942 7.87284 51.6942 7.35631V5.64143C51.6942 5.43482 51.5289 5.26953 51.3223 5.26953H48.533C48.3264 5.26953 48.1611 5.43482 48.1611 5.64143V28.3687C48.1611 28.5753 48.3264 28.7406 48.533 28.7406H51.3223C51.5289 28.7406 51.6942 28.5753 51.6942 28.3687V8.78193H62.7479C64.1322 8.78193 65.2479 9.89763 65.2479 11.2819V28.3687C65.2479 28.5753 65.4132 28.7406 65.6198 28.7406H68.4091C68.6157 28.7406 68.781 28.5753 68.781 28.3687L68.7603 28.348Z" fill="#0C2427"/>
<path id="Vector_18" d="M93.4507 25.1662H92.5623C92.0251 25.1662 91.5912 24.7323 91.5912 24.1952V10.5381C91.5912 7.6249 89.2358 5.26953 86.3226 5.26953H73.5953C73.3887 5.26953 73.2234 5.43482 73.2234 5.64143V8.43069C73.2234 8.6373 73.3887 8.80259 73.5953 8.80259H85.2895C86.8391 8.80259 88.0788 10.0423 88.0788 11.5918V14.2571C88.0788 14.691 87.7276 15.0423 87.2937 15.0423H75.0416C72.8102 15.0423 71.0127 16.8398 71.0127 19.0712V23.6786C71.0127 26.4679 73.2854 28.7406 76.0747 28.7406H83.9466C84.3391 28.7406 84.7317 28.5753 85.0003 28.3067L87.0664 26.2406C87.4383 25.8687 88.0788 26.1373 88.0788 26.6538V27.1497C88.0788 28.0175 88.7813 28.7199 89.6491 28.7199H93.4714C93.678 28.7199 93.8433 28.5547 93.8433 28.348V25.5175C93.8433 25.3109 93.678 25.1456 93.4714 25.1456L93.4507 25.1662ZM88.0788 24.4224C88.0788 24.8563 87.7276 25.2076 87.2937 25.2076H77.0251C75.6408 25.2076 74.5251 24.0918 74.5251 22.7076V20.4555C74.5251 19.3811 75.3929 18.5133 76.4672 18.5133H87.273C87.7069 18.5133 88.0581 18.8646 88.0581 19.2985V24.4018L88.0788 24.4224Z" fill="#0C2427"/>
<path id="Vector_19" d="M116.343 5.26953H101.384C98.4707 5.26953 96.1153 7.6249 96.1153 10.5381V16.3646C96.1153 17.5423 97.0657 18.4927 98.2434 18.4927C102.417 18.4927 111.239 18.534 111.239 18.534C112.314 18.534 113.181 19.4018 113.181 20.4761V22.7282C113.181 24.1125 112.066 25.2282 110.681 25.2282C110.681 25.2282 99.0905 25.2282 96.3426 25.2282C96.0947 25.2282 95.95 25.5175 96.0947 25.7034L98.0575 28.3067C98.3467 28.596 98.7186 28.7406 99.1112 28.7406H111.446C114.338 28.7406 116.673 26.4059 116.673 23.5133V19.0918C116.673 16.8604 114.876 15.0629 112.644 15.0629H100.392C99.9583 15.0629 99.6071 14.7117 99.6071 14.2778V11.6125C99.6071 10.0629 100.847 8.82325 102.396 8.82325H116.301C116.508 8.82325 116.673 8.65796 116.673 8.45135V5.66209C116.673 5.45548 116.508 5.29019 116.301 5.29019L116.343 5.26953Z" fill="#0C2427"/>
<path id="Vector_20" d="M120.207 6.7992H118.947V5.82812H118.637V8.05953H118.947V7.10912H120.207V8.05953H120.517V5.82812H120.207V6.7992Z" fill="#0C2427"/>
<path id="Vector_21" d="M122.521 7.16945C122.5 7.10747 122.459 7.06615 122.418 7.04549C122.397 7.04549 122.376 7.00416 122.335 7.00416C122.314 7.00416 122.273 7.00416 122.232 7.00416C122.19 7.00416 122.149 7.00416 122.108 7.00416C122.066 7.00416 122.025 7.00416 122.004 7.00416C122.046 7.00416 122.066 7.00416 122.108 6.9835C122.149 6.9835 122.17 6.9835 122.211 6.94218C122.252 6.94218 122.273 6.92152 122.314 6.90086C122.335 6.90086 122.376 6.85954 122.397 6.83887C122.438 6.79755 122.48 6.75623 122.521 6.69425C122.562 6.63226 122.562 6.54962 122.562 6.44631C122.562 6.21904 122.5 6.05375 122.356 5.95045C122.211 5.84714 122.004 5.78516 121.757 5.78516H120.744V8.01656H121.054V7.21078H122.046C122.128 7.21078 122.19 7.21078 122.232 7.2521C122.273 7.27276 122.273 7.33474 122.273 7.39673V8.01656H122.583V7.37607C122.583 7.27276 122.583 7.19011 122.542 7.12813L122.521 7.16945ZM121.674 6.9835H121.033V6.09507H121.715C121.88 6.09507 122.025 6.1364 122.128 6.19838C122.232 6.26036 122.273 6.38433 122.273 6.54962C122.273 6.71491 122.273 6.67359 122.232 6.71491C122.211 6.77689 122.17 6.81821 122.108 6.85954C122.046 6.90086 121.984 6.92152 121.922 6.96284C121.86 6.9835 121.777 7.00416 121.695 7.00416L121.674 6.9835Z" fill="#0C2427"/>
<path id="Vector_22" d="M123.14 5.29102H118.037C117.933 5.29102 117.83 5.37366 117.83 5.49763V8.55548C117.83 8.65878 117.913 8.76209 118.037 8.76209H123.14C123.243 8.76209 123.347 8.67945 123.347 8.55548V5.49763C123.347 5.39432 123.264 5.29102 123.14 5.29102ZM123.285 8.55548C123.285 8.63812 123.223 8.67945 123.161 8.67945H118.057C117.975 8.67945 117.933 8.61746 117.933 8.55548V5.49763C117.933 5.41498 117.995 5.37366 118.057 5.37366H123.161C123.243 5.37366 123.285 5.43564 123.285 5.49763V8.55548Z" fill="#0C2427"/>
<g id="Group_3">
<path id="Vector_23" d="M48.1816 34.5668V31.8809H48.4296V34.5668H48.1816Z" fill="#0C2427"/>
<path id="Vector_24" d="M49.6484 34.5668V31.8809H50.1443L51.2393 34.4222H51.2807V31.8809H51.5286V34.5668H51.0327L49.9377 32.0255H49.8964V34.5668H49.6484Z" fill="#0C2427"/>
<path id="Vector_25" d="M53.4294 34.5668V32.1081H52.541V31.8809H54.5658V32.1081H53.6774V34.5668H53.4294Z" fill="#0C2427"/>
<path id="Vector_26" d="M55.5781 34.5668V31.8809H57.1897V32.1081H55.8261V33.1205H57.0864V33.3478H55.8261V34.3602H57.2104V34.5875H55.5781V34.5668Z" fill="#0C2427"/>
<path id="Vector_27" d="M58.3262 34.5668V31.8809H58.5741V34.3395H59.9791V34.5668H58.3262Z" fill="#0C2427"/>
<path id="Vector_28" d="M60.9912 34.5668V31.8809H61.2391V34.3395H62.6441V34.5668H60.9912Z" fill="#0C2427"/>
<path id="Vector_29" d="M63.6572 34.5668V31.8809H63.9052V34.5668H63.6572Z" fill="#0C2427"/>
<path id="Vector_30" d="M66.0534 34.6084C65.8468 34.6084 65.6609 34.5671 65.5162 34.4845C65.3716 34.4018 65.2476 34.2779 65.165 34.1126C65.0823 33.9473 65.041 33.7613 65.041 33.5134V32.9142C65.041 32.563 65.1443 32.2944 65.3303 32.1084C65.5162 31.9225 65.7642 31.8398 66.0741 31.8398C66.384 31.8398 66.6113 31.9225 66.7766 32.1084C66.9418 32.2737 67.0245 32.5217 67.0245 32.8109H66.7766C66.7766 32.6456 66.7559 32.5217 66.6939 32.4184C66.6526 32.315 66.5699 32.2324 66.4666 32.1704C66.3633 32.1084 66.2394 32.0671 66.0741 32.0671C65.8261 32.0671 65.6402 32.1498 65.4956 32.2944C65.3509 32.439 65.289 32.6663 65.289 32.9349V33.5547C65.289 33.8233 65.3509 34.0299 65.4956 34.1952C65.6402 34.3398 65.8261 34.4225 66.0741 34.4225C66.322 34.4225 66.4873 34.3605 66.6113 34.2159C66.7352 34.0712 66.7766 33.8853 66.7766 33.658V33.5754H65.8881V33.3688H67.0038V34.6084H66.7766V34.2985H66.7352C66.7146 34.3605 66.6526 34.4225 66.6113 34.4638C66.5493 34.5258 66.4873 34.5671 66.384 34.5878C66.3013 34.6291 66.1774 34.6291 66.0328 34.6291L66.0534 34.6084Z" fill="#0C2427"/>
<path id="Vector_31" d="M68.2227 34.5668V31.8809H69.8342V32.1081H68.4706V33.1205H69.7309V33.3478H68.4706V34.3602H69.8549V34.5875H68.2227V34.5668Z" fill="#0C2427"/>
<path id="Vector_32" d="M70.9707 34.5668V31.8809H71.4666L72.5616 34.4222H72.6029V31.8809H72.8509V34.5668H72.355L71.26 32.0255H71.2186V34.5668H70.9707Z" fill="#0C2427"/>
<path id="Vector_33" d="M74.7517 34.5668V32.1081H73.8633V31.8809H75.8881V32.1081H74.9996V34.5668H74.7517Z" fill="#0C2427"/>
<path id="Vector_34" d="M78.3672 34.5668V31.8809H79.3589C79.5242 31.8809 79.6688 31.9015 79.7928 31.9635C79.9168 32.0255 80.0201 32.1081 80.1027 32.2114C80.1854 32.3147 80.206 32.4594 80.206 32.6247V32.666C80.206 32.8313 80.1647 32.9552 80.1027 33.0792C80.0201 33.1825 79.9168 33.2858 79.7928 33.3271C79.6688 33.3891 79.5242 33.4098 79.3796 33.4098H78.6358V34.5255H78.3878L78.3672 34.5668ZM78.6151 33.2238H79.3383C79.5242 33.2238 79.6895 33.1825 79.7928 33.0792C79.8961 32.9759 79.9581 32.8519 79.9581 32.6866V32.6453C79.9581 32.48 79.8961 32.3354 79.7928 32.2528C79.6895 32.1495 79.5242 32.1081 79.3383 32.1081H78.6151V33.2238Z" fill="#0C2427"/>
<path id="Vector_35" d="M81.2393 34.5668V31.8809H82.8508V32.1081H81.4872V33.1205H82.7475V33.3478H81.4872V34.3602H82.8715V34.5875H81.2393V34.5668Z" fill="#0C2427"/>
<path id="Vector_36" d="M84.9168 34.6093C84.6069 34.6093 84.359 34.5266 84.173 34.3407C83.9871 34.1547 83.8838 33.8861 83.8838 33.5349V32.9357C83.8838 32.5845 83.9871 32.3159 84.173 32.1299C84.359 31.944 84.6069 31.8613 84.9168 31.8613C85.2268 31.8613 85.4747 31.944 85.6606 32.1299C85.8466 32.3159 85.9499 32.5845 85.9499 32.9357V33.5349C85.9499 33.8861 85.8466 34.1547 85.6606 34.3407C85.4747 34.5266 85.2268 34.6093 84.9168 34.6093ZM84.9168 34.4027C85.1648 34.4027 85.3507 34.32 85.4954 34.1754C85.64 34.0307 85.702 33.8035 85.702 33.5349V32.915C85.702 32.6465 85.64 32.4398 85.4954 32.2746C85.3507 32.1299 85.1648 32.0473 84.9168 32.0473C84.6689 32.0473 84.483 32.1299 84.3383 32.2746C84.1937 32.4192 84.1317 32.6465 84.1317 32.915V33.5349C84.1317 33.8035 84.1937 34.0101 84.3383 34.1754C84.483 34.32 84.6689 34.4027 84.9168 34.4027Z" fill="#0C2427"/>
<path id="Vector_37" d="M87.0869 34.5668V31.8809H88.0786C88.2439 31.8809 88.3886 31.9015 88.5125 31.9635C88.6365 32.0255 88.7398 32.1081 88.8224 32.2114C88.9051 32.3147 88.9258 32.4594 88.9258 32.6247V32.666C88.9258 32.8313 88.8844 32.9552 88.8224 33.0792C88.7398 33.1825 88.6365 33.2858 88.5125 33.3271C88.3886 33.3891 88.2439 33.4098 88.0993 33.4098H87.3555V34.5255H87.1076L87.0869 34.5668ZM87.3349 33.2238H88.058C88.2439 33.2238 88.4092 33.1825 88.5125 33.0792C88.6158 32.9759 88.6778 32.8519 88.6778 32.6866V32.6453C88.6778 32.48 88.6158 32.3354 88.5125 32.2528C88.4092 32.1495 88.2439 32.1081 88.058 32.1081H87.3349V33.2238Z" fill="#0C2427"/>
<path id="Vector_38" d="M89.959 34.5668V31.8809H90.2069V34.3395H91.6119V34.5668H89.959Z" fill="#0C2427"/>
<path id="Vector_39" d="M92.624 34.5668V31.8809H94.2356V32.1081H92.872V33.1205H94.1323V33.3478H92.872V34.3602H94.2563V34.5875H92.624V34.5668Z" fill="#0C2427"/>
<path id="Vector_40" d="M97.8101 34.6093C97.6241 34.6093 97.4382 34.5679 97.2936 34.506C97.1489 34.444 97.025 34.3407 96.9423 34.196C96.8597 34.0514 96.8184 33.8861 96.8184 33.6588V33.5762H97.0663V33.6588C97.0663 33.9068 97.1283 34.0927 97.2729 34.2167C97.4175 34.3407 97.6035 34.4027 97.8101 34.4027C98.0167 34.4027 98.2027 34.3613 98.3266 34.258C98.4506 34.1547 98.5126 34.0307 98.5126 33.8655C98.5126 33.7002 98.4919 33.6795 98.4299 33.6175C98.3679 33.5555 98.306 33.4936 98.2027 33.4522C98.0993 33.4109 97.996 33.3696 97.8721 33.3489L97.6241 33.2869C97.4795 33.2456 97.3555 33.2043 97.2316 33.1423C97.1076 33.0803 97.025 33.0184 96.963 32.915C96.901 32.8117 96.8597 32.7084 96.8597 32.5638C96.8597 32.4192 96.901 32.2952 96.963 32.1919C97.025 32.0886 97.1489 32.006 97.2729 31.944C97.3969 31.882 97.5622 31.8613 97.7274 31.8613C97.8927 31.8613 98.058 31.882 98.2027 31.944C98.3473 32.006 98.4506 32.0886 98.5332 32.2126C98.6159 32.3365 98.6572 32.4812 98.6572 32.6671V32.8531H98.4093V32.6671C98.4093 32.5225 98.3886 32.4192 98.3266 32.3365C98.2646 32.2539 98.182 32.1919 98.0787 32.1506C97.9754 32.1093 97.8514 32.0886 97.7274 32.0886C97.5415 32.0886 97.3969 32.1299 97.2729 32.2126C97.1489 32.2952 97.087 32.4192 97.087 32.5845C97.087 32.7498 97.1076 32.7704 97.1696 32.8324C97.2109 32.8944 97.2936 32.9564 97.3762 32.977C97.4589 33.0184 97.5828 33.0597 97.6861 33.0803L97.9341 33.1423C98.0787 33.1836 98.2027 33.225 98.3266 33.2663C98.4506 33.3283 98.5332 33.3903 98.6159 33.4936C98.6779 33.5969 98.7192 33.7208 98.7192 33.8655C98.7192 34.0101 98.6779 34.1547 98.5952 34.2787C98.5126 34.4026 98.4093 34.4853 98.2646 34.5473C98.12 34.6093 97.9547 34.6506 97.7688 34.6506L97.8101 34.6093Z" fill="#0C2427"/>
<path id="Vector_41" d="M100.475 34.5676V33.5139L99.5039 31.9023H99.7932L100.578 33.2453H100.62L101.405 31.9023H101.694L100.723 33.5139V34.5676H100.475Z" fill="#0C2427"/>
<path id="Vector_42" d="M103.471 34.6093C103.285 34.6093 103.099 34.5679 102.955 34.506C102.81 34.444 102.686 34.3407 102.603 34.196C102.521 34.0514 102.479 33.8861 102.479 33.6588V33.5762H102.727V33.6588C102.727 33.9068 102.789 34.0927 102.934 34.2167C103.079 34.3407 103.265 34.4027 103.471 34.4027C103.678 34.4027 103.864 34.3613 103.988 34.258C104.112 34.1547 104.174 34.0307 104.174 33.8655C104.174 33.7002 104.153 33.6795 104.091 33.6175C104.029 33.5555 103.967 33.4936 103.864 33.4522C103.76 33.4109 103.657 33.3696 103.533 33.3489L103.285 33.2869C103.141 33.2456 103.017 33.2043 102.893 33.1423C102.769 33.0803 102.686 33.0184 102.624 32.915C102.562 32.8117 102.521 32.7084 102.521 32.5638C102.521 32.4192 102.562 32.2952 102.624 32.1919C102.686 32.0886 102.81 32.006 102.934 31.944C103.058 31.882 103.223 31.8613 103.389 31.8613C103.554 31.8613 103.719 31.882 103.864 31.944C104.008 32.006 104.112 32.0886 104.194 32.2126C104.277 32.3365 104.318 32.4812 104.318 32.6671V32.8531H104.07V32.6671C104.07 32.5225 104.05 32.4192 103.988 32.3365C103.926 32.2539 103.843 32.1919 103.74 32.1506C103.637 32.1093 103.513 32.0886 103.389 32.0886C103.203 32.0886 103.058 32.1299 102.934 32.2126C102.81 32.2952 102.748 32.4192 102.748 32.5845C102.748 32.7498 102.769 32.7704 102.831 32.8324C102.872 32.8944 102.955 32.9564 103.037 32.977C103.12 33.0184 103.244 33.0597 103.347 33.0803L103.595 33.1423C103.74 33.1836 103.864 33.225 103.988 33.2663C104.112 33.3283 104.194 33.3903 104.277 33.4936C104.339 33.5969 104.38 33.7208 104.38 33.8655C104.38 34.0101 104.339 34.1547 104.256 34.2787C104.174 34.4026 104.07 34.4853 103.926 34.5473C103.781 34.6093 103.616 34.6506 103.43 34.6506L103.471 34.6093Z" fill="#0C2427"/>
<path id="Vector_43" d="M106.074 34.5668V32.1081H105.186V31.8809H107.21V32.1081H106.322V34.5668H106.074Z" fill="#0C2427"/>
<path id="Vector_44" d="M108.223 34.5668V31.8809H109.834V32.1081H108.471V33.1205H109.731V33.3478H108.471V34.3602H109.855V34.5875H108.223V34.5668Z" fill="#0C2427"/>
<path id="Vector_45" d="M110.971 34.5668V31.8809H111.446L112.252 34.4222H112.293L113.099 31.8809H113.574V34.5668H113.347V32.0255H113.305L112.5 34.5668H112.066L111.26 32.0255H111.219V34.5668H110.991H110.971Z" fill="#0C2427"/>
<path id="Vector_46" d="M115.703 34.6093C115.517 34.6093 115.331 34.5679 115.186 34.506C115.042 34.444 114.918 34.3407 114.835 34.196C114.752 34.0514 114.711 33.8861 114.711 33.6588V33.5762H114.959V33.6588C114.959 33.9068 115.021 34.0927 115.165 34.2167C115.31 34.3407 115.496 34.4027 115.703 34.4027C115.909 34.4027 116.095 34.3613 116.219 34.258C116.343 34.1547 116.405 34.0307 116.405 33.8655C116.405 33.7002 116.384 33.6795 116.323 33.6175C116.261 33.5555 116.199 33.4936 116.095 33.4522C115.992 33.4109 115.889 33.3696 115.765 33.3489L115.517 33.2869C115.372 33.2456 115.248 33.2043 115.124 33.1423C115 33.0803 114.918 33.0184 114.856 32.915C114.794 32.8117 114.752 32.7084 114.752 32.5638C114.752 32.4192 114.794 32.2952 114.856 32.1919C114.918 32.0886 115.042 32.006 115.165 31.944C115.289 31.882 115.455 31.8613 115.62 31.8613C115.785 31.8613 115.951 31.882 116.095 31.944C116.24 32.006 116.343 32.0886 116.426 32.2126C116.508 32.3365 116.55 32.4812 116.55 32.6671V32.8531H116.302V32.6671C116.302 32.5225 116.281 32.4192 116.219 32.3365C116.157 32.2539 116.075 32.1919 115.971 32.1506C115.868 32.1093 115.744 32.0886 115.62 32.0886C115.434 32.0886 115.289 32.1299 115.165 32.2126C115.042 32.2952 114.98 32.4192 114.98 32.5845C114.98 32.7498 115 32.7704 115.062 32.8324C115.104 32.8944 115.186 32.9564 115.269 32.977C115.351 33.0184 115.475 33.0597 115.579 33.0803L115.827 33.1423C115.971 33.1836 116.095 33.225 116.219 33.2663C116.343 33.3283 116.426 33.3903 116.508 33.4936C116.57 33.5969 116.612 33.7208 116.612 33.8655C116.612 34.0101 116.57 34.1547 116.488 34.2787C116.405 34.4026 116.302 34.4853 116.157 34.5473C116.013 34.6093 115.847 34.6506 115.661 34.6506L115.703 34.6093Z" fill="#0C2427"/>
</g>
</g>
</g>
<defs>
<linearGradient id="paint0_linear_785_37305" x1="20.1637" y1="31.7235" x2="20.1637" y2="40.0087" gradientUnits="userSpaceOnUse">
<stop stop-color="#0C2427" stop-opacity="0"/>
<stop offset="1" stop-color="#0C2427"/>
</linearGradient>
<linearGradient id="paint1_linear_785_37305" x1="17.3549" y1="23.9867" x2="17.3549" y2="34.3379" gradientUnits="userSpaceOnUse">
<stop stop-color="#0C2427" stop-opacity="0"/>
<stop offset="1" stop-color="#0C2427"/>
</linearGradient>
<linearGradient id="paint2_linear_785_37305" x1="25.8581" y1="42.4475" x2="19.8535" y2="48.1599" gradientUnits="userSpaceOnUse">
<stop stop-color="#0C2427" stop-opacity="0"/>
<stop offset="1" stop-color="#0C2427"/>
</linearGradient>
<linearGradient id="paint3_linear_785_37305" x1="15.3059" y1="20.9415" x2="7.9865" y2="28.2609" gradientUnits="userSpaceOnUse">
<stop stop-color="#0C2427" stop-opacity="0"/>
<stop offset="1" stop-color="#0C2427"/>
</linearGradient>
<linearGradient id="paint4_linear_785_37305" x1="8.28814" y1="20.1861" x2="0.00302062" y2="20.1861" gradientUnits="userSpaceOnUse">
<stop stop-color="#0C2427" stop-opacity="0"/>
<stop offset="1" stop-color="#0C2427"/>
</linearGradient>
<linearGradient id="paint5_linear_785_37305" x1="16.0122" y1="17.3343" x2="5.66098" y2="17.3343" gradientUnits="userSpaceOnUse">
<stop stop-color="#0C2427" stop-opacity="0"/>
<stop offset="1" stop-color="#0C2427"/>
</linearGradient>
<linearGradient id="paint6_linear_785_37305" x1="-2.42704" y1="25.859" x2="-8.13941" y2="19.8545" gradientUnits="userSpaceOnUse">
<stop stop-color="#0C2427" stop-opacity="0"/>
<stop offset="1" stop-color="#0C2427"/>
</linearGradient>
<linearGradient id="paint7_linear_785_37305" x1="19.0721" y1="15.2923" x2="11.7527" y2="7.97287" gradientUnits="userSpaceOnUse">
<stop stop-color="#0C2427" stop-opacity="0"/>
<stop offset="1" stop-color="#0C2427"/>
</linearGradient>
<linearGradient id="paint8_linear_785_37305" x1="0.00263681" y1="8.30279" x2="0.209249" y2="0.017668" gradientUnits="userSpaceOnUse">
<stop stop-color="#0C2427" stop-opacity="0"/>
<stop offset="1" stop-color="#0C2427"/>
</linearGradient>
<linearGradient id="paint9_linear_785_37305" x1="22.6646" y1="16.0133" x2="22.6646" y2="5.66211" gradientUnits="userSpaceOnUse">
<stop stop-color="#0C2427" stop-opacity="0"/>
<stop offset="1" stop-color="#0C2427"/>
</linearGradient>
<linearGradient id="paint10_linear_785_37305" x1="14.1418" y1="-2.42606" x2="20.1464" y2="-8.13843" gradientUnits="userSpaceOnUse">
<stop stop-color="#0C2427" stop-opacity="0"/>
<stop offset="1" stop-color="#0C2427"/>
</linearGradient>
<linearGradient id="paint11_linear_785_37305" x1="24.7019" y1="19.0741" x2="32.0213" y2="11.7547" gradientUnits="userSpaceOnUse">
<stop stop-color="#0C2427" stop-opacity="0"/>
<stop offset="1" stop-color="#0C2427"/>
</linearGradient>
<linearGradient id="paint12_linear_785_37305" x1="31.745" y1="19.8452" x2="40.0301" y2="19.8452" gradientUnits="userSpaceOnUse">
<stop stop-color="#0C2427" stop-opacity="0"/>
<stop offset="1" stop-color="#0C2427"/>
</linearGradient>
<linearGradient id="paint13_linear_785_37305" x1="24.0081" y1="22.6666" x2="34.3594" y2="22.6666" gradientUnits="userSpaceOnUse">
<stop stop-color="#0C2427" stop-opacity="0"/>
<stop offset="1" stop-color="#0C2427"/>
</linearGradient>
<linearGradient id="paint14_linear_785_37305" x1="48.305" y1="20.0003" x2="48.1589" y2="20.1464" gradientUnits="userSpaceOnUse">
<stop stop-color="#0C2427" stop-opacity="0"/>
<stop offset="1" stop-color="#0C2427"/>
</linearGradient>
<linearGradient id="paint15_linear_785_37305" x1="20.9395" y1="24.7165" x2="28.259" y2="32.0359" gradientUnits="userSpaceOnUse">
<stop stop-color="#0C2427" stop-opacity="0"/>
<stop offset="1" stop-color="#0C2427"/>
</linearGradient>
<clipPath id="clip0_785_37305">
<rect width="123.347" height="40" fill="white"/>
</clipPath>
</defs>
</svg>
