<svg width="12" height="12" viewBox="0 0 9.75 9.75" fill="none" xmlns="http://www.w3.org/2000/svg">
<path d="M4.875 0C3.91082 0 2.96829 0.285914 2.1666 0.821586C1.36491 1.35726 0.740067 2.11863 0.371089 3.00942C0.00211226 3.90021 -0.094429 4.88041 0.093674 5.82607C0.281777 6.77172 0.746076 7.64036 1.42786 8.32215C2.10964 9.00393 2.97828 9.46823 3.92394 9.65633C4.86959 9.84443 5.84979 9.74789 6.74058 9.37891C7.63137 9.00994 8.39274 8.38509 8.92842 7.5834C9.46409 6.78171 9.75 5.83918 9.75 4.875C9.74864 3.58249 9.23458 2.34331 8.32064 1.42936C7.4067 0.515418 6.16751 0.00136492 4.875 0ZM4.875 9C4.05915 9 3.26163 8.75807 2.58327 8.30481C1.90492 7.85155 1.37621 7.20731 1.064 6.45357C0.751788 5.69982 0.670099 4.87042 0.829263 4.07025C0.988427 3.27008 1.3813 2.53508 1.95819 1.95818C2.53508 1.38129 3.27008 0.988425 4.07025 0.829261C4.87043 0.670097 5.69983 0.751785 6.45357 1.064C7.20732 1.37621 7.85155 1.90492 8.30481 2.58327C8.75808 3.26163 9 4.05915 9 4.875C8.99876 5.96864 8.56377 7.01713 7.79045 7.79045C7.01713 8.56376 5.96864 8.99876 4.875 9ZM7.875 4.875C7.875 4.97446 7.83549 5.06984 7.76517 5.14017C7.69484 5.21049 7.59946 5.25 7.5 5.25H4.875C4.77555 5.25 4.68016 5.21049 4.60984 5.14017C4.53951 5.06984 4.5 4.97446 4.5 4.875V2.25C4.5 2.15054 4.53951 2.05516 4.60984 1.98484C4.68016 1.91451 4.77555 1.875 4.875 1.875C4.97446 1.875 5.06984 1.91451 5.14017 1.98484C5.21049 2.05516 5.25 2.15054 5.25 2.25V4.5H7.5C7.59946 4.5 7.69484 4.53951 7.76517 4.60984C7.83549 4.68016 7.875 4.77554 7.875 4.875Z" fill="#000"/>
</svg>
