<svg preserveAspectRatio="none" width="100%" height="100%" overflow="visible" style="display: block;" viewBox="0 0 20 20" fill="none" xmlns="http://www.w3.org/2000/svg">
<g id="Outline / Search / Magnifer">
<path id="Vector" fill-rule="evenodd" clip-rule="evenodd" d="M9.58333 2.29167C5.55626 2.29167 2.29167 5.55626 2.29167 9.58333C2.29167 13.6104 5.55626 16.875 9.58333 16.875C13.6104 16.875 16.875 13.6104 16.875 9.58333C16.875 5.55626 13.6104 2.29167 9.58333 2.29167ZM1.04167 9.58333C1.04167 4.8659 4.8659 1.04167 9.58333 1.04167C14.3008 1.04167 18.125 4.8659 18.125 9.58333C18.125 11.7171 17.3426 13.6681 16.0491 15.1652L18.7753 17.8914C19.0194 18.1355 19.0194 18.5312 18.7753 18.7753C18.5312 19.0194 18.1355 19.0194 17.8914 18.7753L15.1652 16.0491C13.6681 17.3426 11.7171 18.125 9.58333 18.125C4.8659 18.125 1.04167 14.3008 1.04167 9.58333Z" fill="var(--fill-0, #8C8C8C)"/>
</g>
</svg>
